<?xml version="1.0" encoding="utf-8"?>
<!-- Generator: Adobe Illustrator 27.3.1, SVG Export Plug-In . SVG Version: 6.00 Build 0)  -->
<svg version="1.1" id="Layer_2" xmlns="http://www.w3.org/2000/svg" xmlns:xlink="http://www.w3.org/1999/xlink" x="0px" y="0px"
	 viewBox="0 0 1080 590.4" style="enable-background:new 0 0 1080 590.4;" xml:space="preserve">
<style type="text/css">
	.st0{fill:#025F3C;}
</style>
<g>
	<g>
		<path d="M71.09,404.99c0,1.84-0.62,2.92-1.84,3.22c-1.84,0.54-5.87,0.54-12.09,0c-1.54-0.15-2.3-1.38-2.3-3.68
			c0.15-25.94,0.19-54.8,0.12-86.58c0-0.77,0.08-1.46,0.23-2.07c0.23-0.92,0.65-1.38,1.27-1.38c3.3,0,7.48,0.08,12.55,0.23
			c1.3,0.15,1.99,1.23,2.07,3.22C71.09,340.28,71.09,369.3,71.09,404.99z"/>
		<path d="M122.21,316.91c-0.08-3.99-0.27,25.36-0.58,88.07c0,2-0.62,3.11-1.84,3.34c-3.68,0.61-7.56,0.61-11.63,0
			c-1.38-0.23-2.27-1.04-2.65-2.42c-2.53-11.51-5.49-24.56-8.87-39.15c-0.31-1.15-0.77-1.73-1.38-1.73c-0.46,0-0.69,0.8-0.69,2.41
			c0,1.6,0,7.02,0,16.26c-0.08,9.16-0.12,16.3-0.12,21.41c0,1.53-0.96,2.48-2.88,2.86c-1.31,0.31-3.03,0.42-5.18,0.34
			c-2.76-0.08-4.34-0.12-4.72-0.12c-1.54,0.08-2.34-0.8-2.42-2.64c-0.31-10.72-0.38-26.87-0.23-48.47
			c0.15-20.9,0.42-34.19,0.81-39.85c0.15-1.84,0.65-2.79,1.5-2.87c1.84-0.08,4.34-0.08,7.48,0c3.84,0.15,5.91,0.23,6.22,0.23
			c1.07,0,1.76,0.81,2.07,2.42c3.84,18.58,6.52,30.55,8.06,35.92c0.61,2.07,1.11,3.11,1.5,3.11c0.54,0,0.73-1.19,0.58-3.58
			c-0.31-6.23-0.46-18.09-0.46-35.56c0-1.77,0.77-2.62,2.3-2.54c2.61,0,6.18,0,10.71,0C121.4,314.46,122.21,315.3,122.21,316.91z"/>
		<path d="M168.72,328.31c0,1.08-0.65,1.61-1.96,1.61c-0.54,0-1.69-0.04-3.45-0.12c-1.69,0-3.07,0-4.14,0
			c-1.61,0-2.42,0.58-2.42,1.73l0.23,74.37c0,1.23-0.42,1.88-1.27,1.96c-2.76,0.38-7.14,0.35-13.13-0.12c-1-0.08-1.5-0.73-1.5-1.96
			l-0.12-74.37c0-1.08-0.46-1.61-1.38-1.61h-8.52c-1.23-0.08-1.84-0.61-1.84-1.61c0,0.85-0.08-0.73-0.23-4.72
			c-0.15-2.61-0.08-4.64,0.23-6.1c0.31-2,1-2.99,2.07-2.99c9.52-0.08,21.38-0.08,35.58,0c1.07,0,1.65,0.69,1.73,2.07
			C168.76,321.21,168.8,325.16,168.72,328.31z"/>
		<path d="M210.05,406.71c0,0.92-0.62,1.42-1.85,1.5c-10.63,0.54-20.3,0.46-29-0.23c-0.85-0.08-1.27-0.81-1.27-2.19v-89.92
			c0-0.84,0.42-1.27,1.27-1.27c5.91-0.08,15.47-0.04,28.67,0.11c1.23,0,1.84,0.46,1.84,1.38c0,1.23,0,3.3,0,6.22
			c-0.08,3.61-0.12,5.89-0.12,6.85c0,0.96-0.42,1.44-1.26,1.44c-3.05,0-7.43,0-13.15,0c-1.14,0-1.71,0.42-1.71,1.27
			c0,0.38-0.04,3.11-0.12,8.17c-0.08,4.3-0.08,7.52,0,9.67c0,0.85,0.46,1.34,1.37,1.5c1.6,0.23,5.14,0.27,10.62,0.12
			c0.99,0,1.52,0.46,1.6,1.38c0.08,1.38,0.04,3.95-0.12,7.71c-0.15,4.37-0.23,6.95-0.23,7.71c0,1.08-0.42,1.61-1.27,1.61h-10.36
			c-0.77,0-1.23,0.57-1.38,1.71c-0.38,3.19-0.46,9.23-0.23,18.11c0,0.99,0.69,1.56,2.07,1.71c2.99,0,7.21,0,12.66,0
			c1.23,0,1.84,0.5,1.84,1.5C209.94,399,209.98,403.64,210.05,406.71z"/>
		<path d="M259.56,404.76c0,2.07-0.39,3.1-1.15,3.1h-3.22c-0.69,0-1.19-0.49-1.5-1.46c-0.31-0.98-0.81-2.29-1.5-3.95
			c-1.31,3.61-5.6,5.41-12.89,5.41c-7.91,0-13.47-1.99-16.69-5.96c-2.84-3.51-4.22-9.32-4.14-17.41l0.23-46.75
			c0.08-9.47,1.65-15.89,4.72-19.25c2.76-2.98,7.71-4.47,14.85-4.47c8.52,0,14.31,2.14,17.38,6.43c2.3,3.06,3.49,8.23,3.57,15.5
			c0.23,6.81,0.31,11.82,0.23,15.04c0,1.3-0.5,1.95-1.5,1.95c-2.69,0.08-6.87,0.04-12.55-0.11c-0.92,0-1.42-0.57-1.5-1.72
			c-0.15-4.51-0.31-8.98-0.46-13.41c-0.54-6.11-1.96-9.17-4.26-9.17c-2.84,0-4.26,3.03-4.26,9.08V386c0,1.23,0.38,2.68,1.15,4.37
			c0.92,2.07,1.99,3.1,3.22,3.1c3.07,0,4.61-4.14,4.61-12.43v-5.87c0-1-0.31-1.46-0.92-1.38h-2.76c-0.69,0-1.04-0.35-1.04-1.04
			v-11.17c0-1.15,0.58-1.73,1.73-1.73c4.07,0,9.71,0.04,16.92,0.12c1.15,0,1.73,0.65,1.73,1.95V404.76z"/>
		<path d="M307.34,405.8c0.38,1.69,0,2.57-1.15,2.64c-1.46,0.15-5.95,0.11-13.47-0.12c-0.85,0-1.34-1.04-1.5-3.11
			c-0.39-5.22-0.58-11.01-0.58-17.38c0-11.59-2.03-17.38-6.1-17.38c-0.54-0.15-1-0.15-1.38,0c-0.54,0.23-0.81,1.08-0.81,2.53
			c0,12.05-0.04,22.64-0.12,31.78c0,2-0.42,3.03-1.27,3.11c-4.14,0.46-8.1,0.54-11.86,0.23c-0.92-0.08-1.38-1.19-1.38-3.34v-88.54
			c0-1.38,0.69-2.07,2.09-2.07c4.25,0,10.04-0.04,17.38-0.12c4.79,0,8.84,1,12.16,2.99c3.63,2.22,5.45,5.18,5.45,8.85l-0.11,22.65
			c0,3.76-1.11,6.98-3.34,9.66c-1.54,1.92-3.26,3.22-5.18,3.91c-0.62,0.23-0.92,0.46-0.92,0.69c0,0.16,0.31,0.35,0.92,0.58
			c1.46,0.46,2.99,1.42,4.61,2.87c3.61,3.14,5.41,10.77,5.41,22.88C306.19,396.86,306.57,402.42,307.34,405.8z M290.76,335.56
			c0-5.07-1.69-7.48-5.07-7.25c-0.77,0.16-1.34,0.23-1.73,0.23c-0.69,0-1.04,0.65-1.04,1.95v20.17c0,2.14,0.54,3.25,1.61,3.32
			c0.38,0.08,0.84,0.08,1.38,0c1.69,0,2.84-0.84,3.45-2.53C290.3,348.99,290.76,343.7,290.76,335.56z"/>
		<path d="M331.51,404.99c0,1.84-0.62,2.92-1.84,3.22c-1.84,0.54-5.87,0.54-12.09,0c-1.54-0.15-2.3-1.38-2.3-3.68
			c0.15-25.94,0.19-54.8,0.12-86.58c0-0.77,0.08-1.46,0.23-2.07c0.23-0.92,0.65-1.38,1.27-1.38c3.3,0,7.48,0.08,12.55,0.23
			c1.3,0.15,2,1.23,2.07,3.22C331.51,340.28,331.51,369.3,331.51,404.99z"/>
		<path d="M379.52,328.31c0,1.08-0.65,1.61-1.96,1.61c-0.54,0-1.69-0.04-3.45-0.12c-1.69,0-3.07,0-4.14,0
			c-1.61,0-2.42,0.58-2.42,1.73l0.23,74.37c0,1.23-0.42,1.88-1.27,1.96c-2.76,0.38-7.14,0.35-13.12-0.12c-1-0.08-1.5-0.73-1.5-1.96
			l-0.12-74.37c0-1.08-0.46-1.61-1.38-1.61h-8.52c-1.23-0.08-1.84-0.61-1.84-1.61c0,0.85-0.08-0.73-0.23-4.72
			c-0.15-2.61-0.08-4.64,0.23-6.1c0.31-2,1-2.99,2.07-2.99c9.52-0.08,21.37-0.08,35.58,0c1.07,0,1.65,0.69,1.73,2.07
			C379.56,321.21,379.6,325.16,379.52,328.31z"/>
		<path d="M428.8,317.49c-1.31,3.46-3.3,9.39-5.99,17.77c-3.38,10.62-5.45,17.78-6.22,21.47c-0.15,0.69-0.15,2.15,0,4.39
			c-0.08,12-0.08,26.39,0,43.16c0.08,2.31-0.62,3.5-2.07,3.58c1.07-0.08-2.88-0.23-11.86-0.46c-1.54,0-2.34-0.96-2.42-2.88
			c0.23-13.05,0.38-27.63,0.46-43.75c0-0.61-0.11-1.69-0.35-3.22c-3.15-11.59-7.37-25.37-12.66-41.33
			c-0.15-0.54,0.02-1.09,0.52-1.67c0.5-0.58,1.05-0.9,1.67-0.98c3.53-0.23,7.14-0.23,10.82,0c2.15,0.15,3.38,1.19,3.68,3.11
			c0.77,3.45,1.84,8.48,3.22,15.08c0.61,2.84,1.07,4.26,1.38,4.26c0.08,0,0.38-1.43,0.92-4.3c0.61-3.49,1.57-8.57,2.88-15.24
			c0.46-1.78,1.57-2.75,3.34-2.91c2.53,0.08,6.06,0.08,10.59,0c1.53-0.08,2.3,0.89,2.3,2.89
			C429.03,316.84,428.95,317.19,428.8,317.49z"/>
	</g>
	<g>
		<path d="M94.12,513.57c0.38,1.69,0,2.57-1.15,2.64c-1.46,0.15-5.95,0.11-13.47-0.12c-0.85,0-1.34-1.04-1.5-3.11
			c-0.39-5.22-0.58-11.01-0.58-17.38c0-11.59-2.03-17.38-6.1-17.38c-0.54-0.15-1-0.15-1.38,0c-0.54,0.23-0.81,1.08-0.81,2.53
			c0,12.05-0.04,22.64-0.12,31.78c0,2-0.42,3.03-1.27,3.11c-4.14,0.46-8.1,0.54-11.86,0.23c-0.92-0.08-1.38-1.19-1.38-3.34v-88.54
			c0-1.38,0.69-2.07,2.09-2.07c4.25,0,10.04-0.04,17.38-0.12c4.79,0,8.84,1,12.16,2.99c3.63,2.22,5.45,5.18,5.45,8.85l-0.12,22.65
			c0,3.76-1.11,6.98-3.34,9.66c-1.54,1.92-3.26,3.22-5.18,3.91c-0.62,0.23-0.92,0.46-0.92,0.69c0,0.16,0.31,0.35,0.92,0.58
			c1.46,0.46,2.99,1.42,4.61,2.87c3.61,3.14,5.41,10.77,5.41,22.88C92.97,504.63,93.35,510.19,94.12,513.57z M77.54,443.33
			c0-5.07-1.69-7.48-5.07-7.25c-0.77,0.16-1.34,0.23-1.73,0.23c-0.69,0-1.04,0.65-1.04,1.95v20.17c0,2.14,0.54,3.25,1.61,3.32
			c0.38,0.08,0.84,0.08,1.38,0c1.69,0,2.84-0.84,3.45-2.53C77.08,456.76,77.54,451.47,77.54,443.33z"/>
		<path d="M137.87,497.56c0,12.89-6.14,19.34-18.42,19.34c-6.37,0-10.94-1.61-13.7-4.84c-2.61-2.99-3.91-7.83-3.91-14.51v-53.31
			c0-8.37,1.69-14.31,5.07-17.85c2.76-2.92,6.95-4.37,12.55-4.37c5.99,0,10.36,1.27,13.12,3.8c3.53,3.22,5.3,8.9,5.3,17.04V497.56z
			 M123.24,492.38v-46.63c0-4.53-1.08-6.79-3.22-6.79c-2.38,0-3.57,2.3-3.57,6.91v46.63c0,2.53,0.27,4.13,0.81,4.78
			c0.54,0.65,1.46,0.98,2.76,0.98C122.17,498.25,123.24,496.29,123.24,492.38z"/>
		<path d="M182.88,497.56c0,12.89-6.14,19.34-18.42,19.34c-6.37,0-10.94-1.61-13.7-4.84c-2.61-2.99-3.91-7.83-3.91-14.51v-53.31
			c0-8.37,1.69-14.31,5.07-17.85c2.76-2.92,6.95-4.37,12.55-4.37c5.99,0,10.36,1.27,13.12,3.8c3.53,3.22,5.3,8.9,5.3,17.04V497.56z
			 M168.26,492.38v-46.63c0-4.53-1.08-6.79-3.22-6.79c-2.38,0-3.57,2.3-3.57,6.91v46.63c0,2.53,0.27,4.13,0.81,4.78
			c0.54,0.65,1.46,0.98,2.76,0.98C167.19,498.25,168.26,496.29,168.26,492.38z"/>
		<path d="M226.98,423.99c0,5.14-0.04,9.06-0.12,11.74c0,0.69-0.62,1.11-1.84,1.27c-3.45,0-8.17,0.04-14.16,0.11
			c-0.92,0.08-1.38,0.62-1.38,1.61v20.26c0,1.15,0.38,1.73,1.15,1.73c1.69,0.08,5.56,0,11.63-0.23c1.07,0,1.65,0.5,1.73,1.5
			c0.31,3.07,0.31,8.1,0,15.08c0,0.77-0.38,1.15-1.14,1.15c-2.82-0.08-6.78-0.08-11.88,0c-0.84,0.08-1.3,0.58-1.37,1.5
			c-0.15,2.69-0.19,8.02-0.11,16c0,11.28,0,17.15,0,17.62c0,1-0.53,1.53-1.6,1.61c-5.26,0.54-10.14,0.58-14.64,0.11
			c-0.99-0.08-1.49-0.61-1.49-1.61V424.1c0-1.15,0.61-1.73,1.84-1.73c3.53-0.08,9.1-0.08,16.69,0l14.97,0.11
			C226.4,422.49,226.98,422.99,226.98,423.99z"/>
		<path d="M250.12,512.76c0,1.84-0.62,2.92-1.84,3.22c-1.84,0.54-5.87,0.54-12.09,0c-1.54-0.15-2.3-1.38-2.3-3.68
			c0.15-25.94,0.19-54.8,0.12-86.58c0-0.77,0.08-1.46,0.23-2.07c0.23-0.92,0.65-1.38,1.27-1.38c3.3,0,7.48,0.08,12.55,0.23
			c1.3,0.15,1.99,1.23,2.07,3.22C250.12,448.05,250.12,477.06,250.12,512.76z"/>
		<path d="M301.24,424.68c-0.08-3.99-0.27,25.36-0.58,88.07c0,2-0.62,3.11-1.84,3.34c-3.68,0.61-7.56,0.61-11.63,0
			c-1.38-0.23-2.27-1.04-2.65-2.42c-2.53-11.51-5.49-24.56-8.87-39.15c-0.31-1.15-0.77-1.73-1.38-1.73c-0.46,0-0.69,0.8-0.69,2.41
			c0,1.6,0,7.02,0,16.26c-0.08,9.16-0.12,16.3-0.12,21.41c0,1.53-0.96,2.48-2.88,2.86c-1.31,0.31-3.03,0.42-5.18,0.34
			c-2.76-0.08-4.34-0.12-4.72-0.12c-1.54,0.08-2.34-0.8-2.42-2.64c-0.31-10.72-0.38-26.87-0.23-48.47
			c0.15-20.9,0.42-34.19,0.81-39.85c0.15-1.84,0.65-2.79,1.5-2.87c1.84-0.08,4.34-0.08,7.48,0c3.84,0.15,5.91,0.23,6.22,0.23
			c1.07,0,1.76,0.81,2.07,2.42c3.84,18.58,6.52,30.55,8.06,35.92c0.61,2.07,1.11,3.11,1.5,3.11c0.54,0,0.73-1.19,0.58-3.58
			c-0.31-6.24-0.46-18.09-0.46-35.56c0-1.77,0.77-2.62,2.3-2.54c2.61,0,6.18,0,10.71,0C300.43,422.22,301.24,423.07,301.24,424.68z"
			/>
		<path d="M350.74,512.53c0,2.07-0.38,3.1-1.15,3.1h-3.22c-0.69,0-1.19-0.49-1.5-1.46c-0.31-0.98-0.81-2.29-1.5-3.95
			c-1.31,3.61-5.6,5.41-12.89,5.41c-7.91,0-13.47-1.99-16.69-5.96c-2.84-3.51-4.22-9.32-4.14-17.41l0.23-46.75
			c0.08-9.47,1.65-15.89,4.72-19.25c2.76-2.98,7.71-4.47,14.85-4.47c8.52,0,14.31,2.14,17.38,6.43c2.3,3.06,3.49,8.23,3.57,15.5
			c0.23,6.81,0.31,11.82,0.23,15.04c0,1.3-0.5,1.95-1.5,1.95c-2.69,0.08-6.87,0.04-12.55-0.11c-0.92,0-1.42-0.57-1.5-1.72
			c-0.15-4.51-0.31-8.98-0.46-13.41c-0.54-6.11-1.96-9.17-4.26-9.17c-2.84,0-4.26,3.03-4.26,9.08v48.38c0,1.23,0.38,2.68,1.15,4.37
			c0.92,2.07,2,3.1,3.22,3.1c3.07,0,4.61-4.14,4.61-12.43v-5.87c0-1-0.31-1.46-0.92-1.38h-2.76c-0.69,0-1.04-0.35-1.04-1.04v-11.17
			c0-1.15,0.58-1.73,1.73-1.73c4.07,0,9.71,0.04,16.92,0.12c1.15,0,1.73,0.65,1.73,1.95V512.53z"/>
		<path d="M432.26,472.23c0.08,4.07-0.81,9.21-2.65,15.43c-1.46,5.07-2.8,8.75-4.03,11.05c-0.46,0.85-0.35,1.92,0.35,3.22
			c1,2,2.72,5.53,5.18,10.59c0.92,1.84,0.88,2.76-0.11,2.76c-0.69,0-4.34-0.08-10.94-0.23c-1.08,0-1.8-0.35-2.19-1.04
			c-0.08-0.08-0.42-0.84-1.04-2.3c-0.23-0.46-0.5-0.69-0.81-0.69c-0.08,0-0.73,0.42-1.96,1.27c-4.14,2.99-8.75,4.49-13.82,4.49
			c-3.61,0-7.01-1.34-10.19-4.03c-3.19-2.69-4.78-5.83-4.78-9.44l0.12-20.95c0-3.45,0.92-6.41,2.76-8.87c0.46-0.61,2-2.15,4.61-4.61
			c0.61-0.54,0.58-1.34-0.12-2.42c-0.62-0.84-1.23-1.65-1.84-2.42c-0.77-1.38-1.15-3.03-1.15-4.95l0.35-25.79
			c0.08-7.75,5.49-11.59,16.23-11.51c10.9,0.08,16.31,3.88,16.23,11.4l-0.23,22.8c-0.08,5.07-3.65,9.17-10.71,12.32
			c-0.85,0.38-0.92,1.19-0.23,2.42c1.15,2.53,2.76,6.03,4.84,10.48c0.46,1,0.77,1.5,0.92,1.5c0.15,0,0.35-0.23,0.58-0.69
			c0.38-0.92,1.15-4.41,2.3-10.48c0.15-0.92,1.04-1.38,2.65-1.38c1.92,0,4.3-0.08,7.14-0.23
			C431.41,469.85,432.26,470.62,432.26,472.23z M408.31,496.06c-1.46-3.45-3.42-7.71-5.87-12.78c-0.62-1-1.23-1.11-1.84-0.35
			c-0.92,1.23-1.38,2.53-1.38,3.91c0,6.75,0.04,10.9,0.11,12.43c0.08,2.07,1.15,3.11,3.22,3.11c2.15,0,3.88-0.84,5.18-2.53
			C408.73,498.63,408.92,497.37,408.31,496.06z M410.5,438.96c0-1.46-0.36-2.53-1.09-3.22c-0.73-0.69-1.63-1.04-2.71-1.04
			c-2.69,0.08-4.07,1.31-4.15,3.68l-0.23,11.97c0,1.15,0.61,3.15,1.84,5.99c0.23,0.46,0.96,0.46,2.19,0c2.69-1,4.03-2.72,4.03-5.18
			L410.5,438.96z"/>
	</g>
	<g>
		<path d="M482.33,453.64c0.1,5.01,0.07,14.92-0.07,29.72c-0.14,15.76-0.22,24.3-0.22,25.64c0,0.72-0.44,1.16-1.33,1.33
			c-0.89,0.17-2.02,0.23-3.41,0.18c-1.53-0.05-2.49-0.05-2.88,0c-0.62,0.05-0.93-0.55-0.93-1.79l0.07-22.15
			c-0.05-0.62-0.36-0.98-0.93-1.07c-0.48-0.1-1.77-0.1-3.88,0c-0.38,0-0.6,0.36-0.65,1.07c0.05,5.88-0.02,13.31-0.22,22.29
			c-0.05,0.86-0.7,1.36-1.94,1.51c-2.01,0.29-4.03,0.33-6.04,0.14c-0.72-0.05-1.1-0.6-1.15-1.65c-0.48-12.01-0.53-30.46-0.14-55.35
			c0-0.81,0.24-1.22,0.72-1.22h7.83c0.72,0.05,1.08,0.46,1.08,1.22c0-0.05,0,2.92,0,8.91c-0.1,4.55-0.1,8.1,0,10.64
			c0,0.43,0.02,0.72,0.07,0.86c0.05,0.29,0.19,0.46,0.42,0.5c1.03,0.29,2.33,0.26,3.92-0.07c0.51-0.09,0.77-0.52,0.77-1.28
			c0-5.24,0-11.81,0-19.71c0-0.67,0.17-0.98,0.5-0.93c1.96-0.09,4.53-0.14,7.69-0.14C482.09,452.33,482.33,452.78,482.33,453.64z"/>
		<path d="M510.57,499.22c0,8.05-3.83,12.08-11.5,12.08c-3.98,0-6.83-1.01-8.55-3.02c-1.63-1.87-2.44-4.89-2.44-9.06v-33.28
			c0-5.22,1.05-8.94,3.16-11.14c1.73-1.82,4.34-2.73,7.84-2.73c3.74,0,6.47,0.79,8.19,2.37c2.2,2.01,3.31,5.56,3.31,10.64V499.22z
			 M501.45,495.98v-29.11c0-2.83-0.67-4.24-2.01-4.24c-1.49,0-2.23,1.44-2.23,4.31v29.11c0,1.58,0.17,2.58,0.5,2.98
			c0.33,0.41,0.91,0.61,1.73,0.61C500.77,499.65,501.45,498.42,501.45,495.98z"/>
		<path d="M555,508.41c0,0.82-0.02,1.32-0.07,1.51c-0.14,0.58-0.43,0.89-0.86,0.94c-0.19,0.05-3.16,0-8.91-0.14
			c-0.77,0-1.17-0.53-1.22-1.58c-0.1-1.25-0.12-3.45-0.07-6.61c0-2.11,0.02-4.86,0.07-8.27c0.05-3.26,0.07-5.01,0.07-5.25
			c0-1.01-0.1-1.51-0.29-1.51c-0.24,0-0.46,0.41-0.65,1.23c-0.38,1.73-0.84,4.9-1.37,9.52c-0.62,5.53-1.03,8.99-1.22,10.38
			c-0.19,1.2-0.64,1.87-1.33,2.02c-0.7,0.14-1.71,0.22-3.05,0.22c-2.16-0.05-3.21-0.07-3.16-0.07c-0.43,0-0.79-0.67-1.08-2.02
			c-0.48-2.26-0.98-6.13-1.51-11.61c-0.57-5.09-0.93-7.96-1.08-8.58c-0.24-0.96-0.5-1.44-0.79-1.44c-0.19,0-0.29,0.51-0.29,1.52
			c0,11.52,0.02,18.25,0.07,20.18c0.05,1.25-0.31,1.93-1.08,2.02h-8.41c-0.77,0-1.2-0.82-1.29-2.45c-0.19-2.83-0.29-6.87-0.29-12.11
			c0-6,0.14-14.79,0.43-26.37c0.24-9.94,0.33-15.37,0.29-16.28c-0.05-0.43-0.02-0.82,0.07-1.15c0.14-0.53,0.41-0.77,0.79-0.72
			c2.59,0.19,5.32,0.24,8.19,0.14c0.48,0,0.91,0.53,1.29,1.58c0.53,1.49,2.88,9.01,7.04,22.57c0.38,1.2,0.69,1.8,0.93,1.8
			c0.29,0,0.6-0.6,0.93-1.81c1.77-5.69,4.05-13.3,6.83-22.84c0.29-1.01,0.84-1.49,1.65-1.45h7.55c0.67,0,1.01,0.67,1.01,2.02
			c0.19,8.31,0.38,16.62,0.57,24.93C555.07,492.46,555.14,502.36,555,508.41z"/>
		<path d="M580.52,509.78c0,0.58-0.39,0.89-1.15,0.93c-6.64,0.33-12.67,0.29-18.11-0.14c-0.53-0.05-0.79-0.5-0.79-1.37v-56.14
			c0-0.53,0.26-0.79,0.79-0.79c3.69-0.05,9.66-0.02,17.9,0.07c0.77,0,1.15,0.29,1.15,0.86c0,0.77,0,2.06,0,3.88
			c-0.05,2.25-0.07,3.68-0.07,4.28c0,0.6-0.26,0.9-0.78,0.9c-1.9,0-4.64,0-8.21,0c-0.71,0-1.07,0.26-1.07,0.79
			c0,0.24-0.02,1.94-0.07,5.1c-0.05,2.68-0.05,4.7,0,6.04c0,0.53,0.29,0.84,0.86,0.93c1,0.14,3.21,0.17,6.63,0.07
			c0.62,0,0.95,0.29,1,0.86c0.05,0.86,0.02,2.47-0.07,4.82c-0.1,2.73-0.14,4.34-0.14,4.82c0,0.67-0.26,1.01-0.79,1.01h-6.47
			c-0.48,0-0.77,0.36-0.86,1.07c-0.24,1.99-0.29,5.76-0.14,11.31c0,0.62,0.43,0.97,1.29,1.07c1.87,0,4.5,0,7.91,0
			c0.77,0,1.15,0.31,1.15,0.93C580.44,504.97,580.47,507.87,580.52,509.78z"/>
		<path d="M611.13,508.7c0,1.15-0.38,1.82-1.15,2.01c-1.15,0.33-3.67,0.33-7.55,0c-0.96-0.1-1.44-0.86-1.44-2.3
			c0.1-16.2,0.12-34.22,0.07-54.05c0-0.48,0.05-0.91,0.14-1.29c0.14-0.58,0.41-0.86,0.79-0.86c2.06,0,4.67,0.05,7.84,0.14
			c0.81,0.1,1.25,0.77,1.29,2.01C611.13,468.31,611.13,486.42,611.13,508.7z"/>
		<path d="M655.2,508.41c0,0.82-0.02,1.32-0.07,1.51c-0.14,0.58-0.43,0.89-0.86,0.94c-0.19,0.05-3.16,0-8.91-0.14
			c-0.77,0-1.17-0.53-1.22-1.58c-0.1-1.25-0.12-3.45-0.07-6.61c0-2.11,0.02-4.86,0.07-8.27c0.05-3.26,0.07-5.01,0.07-5.25
			c0-1.01-0.1-1.51-0.29-1.51c-0.24,0-0.46,0.41-0.65,1.23c-0.38,1.73-0.84,4.9-1.37,9.52c-0.62,5.53-1.03,8.99-1.22,10.38
			c-0.19,1.2-0.64,1.87-1.33,2.02c-0.7,0.14-1.71,0.22-3.06,0.22c-2.16-0.05-3.21-0.07-3.16-0.07c-0.43,0-0.79-0.67-1.08-2.02
			c-0.48-2.26-0.98-6.13-1.51-11.61c-0.58-5.09-0.93-7.96-1.08-8.58c-0.24-0.96-0.5-1.44-0.79-1.44c-0.19,0-0.29,0.51-0.29,1.52
			c0,11.52,0.02,18.25,0.07,20.18c0.05,1.25-0.31,1.93-1.08,2.02h-8.41c-0.77,0-1.2-0.82-1.29-2.45c-0.19-2.83-0.29-6.87-0.29-12.11
			c0-6,0.14-14.79,0.43-26.37c0.24-9.94,0.33-15.37,0.29-16.28c-0.05-0.43-0.02-0.82,0.07-1.15c0.14-0.53,0.41-0.77,0.79-0.72
			c2.59,0.19,5.32,0.24,8.19,0.14c0.48,0,0.91,0.53,1.29,1.58c0.53,1.49,2.88,9.01,7.04,22.57c0.38,1.2,0.69,1.8,0.93,1.8
			c0.29,0,0.6-0.6,0.93-1.81c1.77-5.69,4.05-13.3,6.83-22.84c0.29-1.01,0.84-1.49,1.65-1.45h7.55c0.67,0,1.01,0.67,1.01,2.02
			c0.19,8.31,0.38,16.62,0.58,24.93C655.27,492.46,655.34,502.36,655.2,508.41z"/>
		<path d="M683.02,478.66c0,3.5-1.53,6.21-4.6,8.12c-2.25,1.39-4.67,2.08-7.26,2.08c-0.62,0-0.93,0.34-0.93,1.01
			c0,4.36-0.05,10.9-0.14,19.62c0,0.77-0.26,1.17-0.79,1.22c-1.68,0.19-4.22,0.19-7.62,0c-0.62-0.05-0.93-0.36-0.93-0.93L660.59,453
			c0-0.53,0.41-0.81,1.22-0.86c1.96-0.1,5.15-0.07,9.56,0.07c2.83,0,5.42,0.84,7.76,2.52c2.59,1.77,3.88,4,3.88,6.68V478.66z
			 M674.46,470.53c0.05-3.21-0.1-5.53-0.43-6.97c-0.29-1.1-0.69-1.77-1.22-2.01c-0.53-0.05-1.03-0.1-1.51-0.14
			c-0.19,0-0.55-0.05-1.08-0.14c-0.19-0.05-0.36,0.05-0.5,0.29c-0.14,0.24-0.19,0.5-0.14,0.79c0,3.59,0.02,8.79,0.07,15.6
			c0,0.43,0.24,0.74,0.72,0.93c0.24,0.1,0.55,0.07,0.93-0.07c1.15-0.1,1.89-0.46,2.23-1.08
			C674.1,476.62,674.41,474.23,674.46,470.53z"/>
		<path d="M711.7,509.21c0.24,1.05,0,1.6-0.72,1.65c-0.91,0.1-3.71,0.07-8.41-0.07c-0.53,0-0.84-0.65-0.93-1.94
			c-0.24-3.26-0.36-6.88-0.36-10.85c0-7.24-1.27-10.85-3.81-10.85c-0.34-0.1-0.62-0.1-0.86,0c-0.34,0.14-0.5,0.67-0.5,1.58
			c0,7.52-0.03,14.14-0.07,19.84c0,1.25-0.26,1.89-0.79,1.94c-2.59,0.29-5.06,0.33-7.4,0.14c-0.58-0.05-0.86-0.74-0.86-2.08v-55.28
			c0-0.86,0.43-1.29,1.3-1.29c2.65,0,6.27-0.02,10.85-0.07c2.99,0,5.52,0.62,7.59,1.87c2.27,1.39,3.4,3.23,3.4,5.53l-0.07,14.14
			c0,2.35-0.69,4.36-2.08,6.03c-0.96,1.2-2.04,2.01-3.23,2.44c-0.38,0.14-0.58,0.29-0.58,0.43c0,0.1,0.19,0.22,0.58,0.36
			c0.91,0.29,1.87,0.89,2.88,1.79c2.25,1.96,3.38,6.72,3.38,14.29C710.98,503.63,711.22,507.1,711.7,509.21z M701.35,465.36
			c0-3.16-1.05-4.67-3.16-4.53c-0.48,0.1-0.84,0.14-1.08,0.14c-0.43,0-0.65,0.41-0.65,1.22v12.59c0,1.34,0.33,2.03,1.01,2.08
			c0.24,0.05,0.53,0.05,0.86,0c1.05,0,1.77-0.53,2.16-1.58C701.06,473.75,701.35,470.44,701.35,465.36z"/>
		<path d="M739.37,499.22c0,8.05-3.83,12.08-11.5,12.08c-3.98,0-6.83-1.01-8.55-3.02c-1.63-1.87-2.44-4.89-2.44-9.06v-33.28
			c0-5.22,1.05-8.94,3.16-11.14c1.73-1.82,4.34-2.73,7.83-2.73c3.74,0,6.47,0.79,8.19,2.37c2.2,2.01,3.31,5.56,3.31,10.64V499.22z
			 M730.24,495.98v-29.11c0-2.83-0.67-4.24-2.01-4.24c-1.49,0-2.23,1.44-2.23,4.31v29.11c0,1.58,0.17,2.58,0.5,2.98
			c0.33,0.41,0.91,0.61,1.73,0.61C729.57,499.65,730.24,498.42,730.24,495.98z"/>
		<path d="M774.23,453.57c-1.49,8.24-2.97,17.61-4.46,28.11c-1.77,12.36-3.16,21.61-4.17,27.75c-0.14,0.91-0.5,1.37-1.08,1.37h-8.77
			c-0.77,0-1.22-0.46-1.37-1.37c-0.96-6.09-2.25-15.5-3.88-28.25c-1.49-11.88-2.8-21.23-3.95-28.03c-0.05-0.33,0.05-0.65,0.29-0.93
			c0.24-0.29,0.53-0.43,0.86-0.43c2.11,0,4.82,0.02,8.12,0.07c0.77,0,1.27,0.5,1.51,1.51c0.14,0.67,0.47,3.64,0.97,8.91
			c0.5,5.27,1.11,9.54,1.83,12.79c0.19,0.77,0.38,1.15,0.58,1.15c0.19,0,0.36-0.41,0.5-1.22c0.48-2.97,0.98-7.09,1.51-12.36
			c0.43-4.79,0.79-7.91,1.08-9.34c0.14-0.81,0.55-1.22,1.22-1.22c3.45-0.1,6.13-0.02,8.05,0.22
			C773.99,452.37,774.38,452.8,774.23,453.57z"/>
		<path d="M798.96,509.78c0,0.58-0.39,0.89-1.15,0.93c-6.64,0.33-12.67,0.29-18.11-0.14c-0.53-0.05-0.79-0.5-0.79-1.37v-56.14
			c0-0.53,0.26-0.79,0.79-0.79c3.69-0.05,9.66-0.02,17.9,0.07c0.77,0,1.15,0.29,1.15,0.86c0,0.77,0,2.06,0,3.88
			c-0.05,2.25-0.07,3.68-0.07,4.28c0,0.6-0.26,0.9-0.78,0.9c-1.9,0-4.64,0-8.21,0c-0.71,0-1.07,0.26-1.07,0.79
			c0,0.24-0.02,1.94-0.07,5.1c-0.05,2.68-0.05,4.7,0,6.04c0,0.53,0.29,0.84,0.86,0.93c1,0.14,3.21,0.17,6.63,0.07
			c0.62,0,0.95,0.29,1,0.86c0.05,0.86,0.02,2.47-0.07,4.82c-0.1,2.73-0.14,4.34-0.14,4.82c0,0.67-0.26,1.01-0.79,1.01h-6.47
			c-0.48,0-0.77,0.36-0.86,1.07c-0.24,1.99-0.29,5.76-0.14,11.31c0,0.62,0.43,0.97,1.29,1.07c1.87,0,4.5,0,7.91,0
			c0.77,0,1.15,0.31,1.15,0.93C798.89,504.97,798.91,507.87,798.96,509.78z"/>
		<path d="M842.09,508.41c0,0.82-0.02,1.32-0.07,1.51c-0.14,0.58-0.43,0.89-0.86,0.94c-0.19,0.05-3.16,0-8.91-0.14
			c-0.77,0-1.17-0.53-1.22-1.58c-0.1-1.25-0.12-3.45-0.07-6.61c0-2.11,0.02-4.86,0.07-8.27c0.05-3.26,0.07-5.01,0.07-5.25
			c0-1.01-0.1-1.51-0.29-1.51c-0.24,0-0.46,0.41-0.65,1.23c-0.38,1.73-0.84,4.9-1.37,9.52c-0.62,5.53-1.03,8.99-1.22,10.38
			c-0.19,1.2-0.64,1.87-1.33,2.02c-0.7,0.14-1.71,0.22-3.06,0.22c-2.16-0.05-3.21-0.07-3.16-0.07c-0.43,0-0.79-0.67-1.08-2.02
			c-0.48-2.26-0.98-6.13-1.51-11.61c-0.58-5.09-0.93-7.96-1.08-8.58c-0.24-0.96-0.5-1.44-0.79-1.44c-0.19,0-0.29,0.51-0.29,1.52
			c0,11.52,0.02,18.25,0.07,20.18c0.05,1.25-0.31,1.93-1.08,2.02h-8.41c-0.77,0-1.2-0.82-1.29-2.45c-0.19-2.83-0.29-6.87-0.29-12.11
			c0-6,0.14-14.79,0.43-26.37c0.24-9.94,0.33-15.37,0.29-16.28c-0.05-0.43-0.02-0.82,0.07-1.15c0.14-0.53,0.41-0.77,0.79-0.72
			c2.59,0.19,5.32,0.24,8.19,0.14c0.48,0,0.91,0.53,1.29,1.58c0.53,1.49,2.88,9.01,7.04,22.57c0.38,1.2,0.69,1.8,0.93,1.8
			c0.29,0,0.6-0.6,0.93-1.81c1.77-5.69,4.05-13.3,6.83-22.84c0.29-1.01,0.84-1.49,1.65-1.45h7.55c0.67,0,1.01,0.67,1.01,2.02
			c0.19,8.31,0.38,16.62,0.58,24.93C842.16,492.46,842.23,502.36,842.09,508.41z"/>
		<path d="M867.6,509.78c0,0.58-0.39,0.89-1.15,0.93c-6.64,0.33-12.67,0.29-18.11-0.14c-0.53-0.05-0.79-0.5-0.79-1.37v-56.14
			c0-0.53,0.26-0.79,0.79-0.79c3.69-0.05,9.66-0.02,17.9,0.07c0.77,0,1.15,0.29,1.15,0.86c0,0.77,0,2.06,0,3.88
			c-0.05,2.25-0.07,3.68-0.07,4.28c0,0.6-0.26,0.9-0.78,0.9c-1.9,0-4.64,0-8.21,0c-0.71,0-1.07,0.26-1.07,0.79
			c0,0.24-0.02,1.94-0.07,5.1c-0.05,2.68-0.05,4.7,0,6.04c0,0.53,0.29,0.84,0.86,0.93c1,0.14,3.21,0.17,6.63,0.07
			c0.62,0,0.95,0.29,1,0.86c0.05,0.86,0.02,2.47-0.07,4.82c-0.1,2.73-0.14,4.34-0.14,4.82c0,0.67-0.26,1.01-0.79,1.01h-6.47
			c-0.48,0-0.77,0.36-0.86,1.07c-0.24,1.99-0.29,5.76-0.14,11.31c0,0.62,0.43,0.97,1.29,1.07c1.87,0,4.5,0,7.91,0
			c0.77,0,1.15,0.31,1.15,0.93C867.53,504.97,867.56,507.87,867.6,509.78z"/>
		<path d="M898.94,453.72c-0.05-2.49-0.17,15.84-0.36,54.98c0,1.25-0.38,1.94-1.15,2.09c-2.3,0.38-4.72,0.38-7.26,0
			c-0.86-0.14-1.41-0.65-1.65-1.51c-1.58-7.19-3.43-15.33-5.53-24.44c-0.19-0.72-0.48-1.08-0.86-1.08c-0.29,0-0.43,0.5-0.43,1.5
			c0,1,0,4.39,0,10.15c-0.05,5.72-0.07,10.18-0.07,13.37c0,0.95-0.6,1.55-1.8,1.79c-0.82,0.19-1.89,0.26-3.23,0.21
			c-1.73-0.05-2.71-0.07-2.95-0.07c-0.96,0.05-1.46-0.5-1.51-1.65c-0.19-6.69-0.24-16.78-0.14-30.26c0.1-13.05,0.26-21.34,0.5-24.88
			c0.1-1.15,0.41-1.74,0.93-1.79c1.15-0.05,2.71-0.05,4.67,0c2.4,0.1,3.69,0.14,3.88,0.14c0.67,0,1.1,0.5,1.29,1.51
			c2.4,11.6,4.07,19.07,5.03,22.43c0.38,1.29,0.69,1.94,0.93,1.94c0.33,0,0.46-0.74,0.36-2.23c-0.19-3.89-0.29-11.29-0.29-22.2
			c0-1.11,0.48-1.63,1.44-1.59c1.63,0,3.86,0,6.68,0C898.44,452.18,898.94,452.71,898.94,453.72z"/>
		<path d="M928.34,460.83c0,0.67-0.41,1.01-1.22,1.01c-0.34,0-1.05-0.02-2.16-0.07c-1.05,0-1.92,0-2.59,0
			c-1.01,0-1.51,0.36-1.51,1.08l0.14,46.43c0,0.77-0.26,1.18-0.79,1.22c-1.73,0.24-4.46,0.22-8.19-0.07
			c-0.62-0.05-0.93-0.46-0.93-1.22l-0.07-46.43c0-0.67-0.29-1.01-0.86-1.01h-5.32c-0.77-0.05-1.15-0.38-1.15-1.01
			c0,0.53-0.05-0.46-0.14-2.95c-0.1-1.63-0.05-2.9,0.14-3.81c0.19-1.25,0.62-1.87,1.29-1.87c5.94-0.05,13.35-0.05,22.21,0
			c0.67,0,1.03,0.43,1.08,1.29C928.37,456.4,928.39,458.87,928.34,460.83z"/>
	</g>
	<g>
		<path d="M959.35,485.99c-0.03,0.49-0.38,0.74-1.06,0.74c0.16,0-1.63,0.03-5.38,0.08c-2.28,0.05-3.87,0.03-4.77-0.08
			c-0.41-0.05-0.61-0.38-0.61-0.98c-0.14-13.8-0.18-24.18-0.12-31.13c0-0.76,0.24-1.1,0.73-1.02c0.57,0.08,2.04,0.08,4.4,0
			c0.35-0.03,0.56,0.11,0.61,0.41c-0.03,0.24-0.04,0.5-0.04,0.77c0.08,1.19,0.09,4.87,0.04,11.03c-0.05,6.7-0.04,11.35,0.04,13.95
			c0.03,0.62,0.34,0.95,0.94,0.98h4.24c0.65,0,0.98,0.25,0.98,0.74C959.37,482.44,959.37,483.94,959.35,485.99z"/>
		<path d="M973.48,485.99c-0.03,0.49-0.38,0.74-1.06,0.74c0.16,0-1.63,0.03-5.38,0.08c-2.28,0.05-3.87,0.03-4.77-0.08
			c-0.41-0.05-0.61-0.38-0.61-0.98c-0.14-13.8-0.18-24.18-0.12-31.13c0-0.76,0.24-1.1,0.73-1.02c0.57,0.08,2.04,0.08,4.4,0
			c0.35-0.03,0.56,0.11,0.61,0.41c-0.03,0.24-0.04,0.5-0.04,0.77c0.08,1.19,0.09,4.87,0.04,11.03c-0.05,6.7-0.04,11.35,0.04,13.95
			c0.03,0.62,0.34,0.95,0.94,0.98h4.24c0.65,0,0.98,0.25,0.98,0.74C973.51,482.44,973.51,483.94,973.48,485.99z"/>
		<path d="M989.37,478.14c0,2.5-0.53,4.55-1.59,6.15c-1.2,1.82-2.93,2.73-5.22,2.73c-2.66,0-4.51-1.14-5.54-3.42
			c-0.71-1.58-1.06-3.98-1.06-7.21v-15.73c0-1.44,0.39-2.88,1.18-4.32c1.19-2.2,3-3.3,5.42-3.3c2.58,0,4.43,0.98,5.54,2.93
			c0.9,1.49,1.32,3.49,1.26,5.99c0,0.81-0.01,1.44-0.04,1.87c-0.03,0.43-0.23,0.68-0.61,0.73c-0.38,0.05-1.06,0.07-2.04,0.04
			c-1.36-0.05-1.97-0.08-1.83-0.08c-0.49,0-0.75-0.23-0.77-0.69c0-0.98,0-1.94,0-2.89c-0.16-1.41-0.67-2.12-1.51-2.12
			c-1.11,0-1.67,2.42-1.67,7.25v11.57c0,0.76,0.11,1.48,0.33,2.16c0.3,0.95,0.75,1.43,1.34,1.43c1.06,0,1.59-1.43,1.59-4.28
			c0-0.33,0-0.71,0-1.14c-0.03-0.46-0.04-0.73-0.04-0.81c0-0.49,0.19-0.73,0.57-0.73c1.71,0,3.07,0.01,4.07,0.04
			c0.41,0,0.61,0.23,0.61,0.69C989.4,475.71,989.4,476.75,989.37,478.14z"/>
	</g>
	<g>
		<polygon points="320.71,306.13 52.98,306.13 52.98,287.24 313.42,287.24 510.89,108.13 706.68,289.76 693.84,303.61 
			510.75,133.75 		"/>
	</g>
	<g>
		<polygon points="854.19,268.06 824.95,252.59 824.95,198.35 854.19,198.35 		"/>
	</g>
	<rect x="472.54" y="195.81" width="26.32" height="23.08"/>
	<rect x="472.54" y="233.13" width="26.32" height="23.08"/>
	<rect x="519.28" y="195.81" width="26.32" height="23.08"/>
	<rect x="519.28" y="233.13" width="26.32" height="23.08"/>
	<polygon points="706.68,289.76 725.75,308.83 664.6,308.83 680.41,286.87 	"/>
	<polygon points="1027.02,415.57 993.57,389.15 727.31,142.44 645.88,215.85 658.52,229.88 727.13,168.02 968.71,391.86 
		956.61,415.57 	"/>
	<polygon points="585.15,160.03 640.24,210.81 719.81,142.44 	"/>
	<path d="M452.34,145.25l-23.28-10.74c-1.46-0.67-3.15-0.62-4.56,0.15c-1.27,0.69-2.79,1.71-3.98,3.05
		c-2.09,2.35-1.46,6.04,1.24,7.66c-0.12,5.02-2.42,4.96-2.42,4.96c-17.54-1.27-37.63-7.93-37.63-7.93
		c-1.77-13.93-11.66-30.39-11.66-30.39l4.73-8.54l5.98,5.81c1.04,1.01,2.74,0.8,3.51-0.43l4.07-6.56c0.24-0.38,0.6-0.66,1.03-0.8
		l2.06-0.64c0.92-0.29,1.6-1.08,1.74-2.03l0.23-1.58c0.1-0.67,0.55-1.23,1.18-1.47c5.69-2.18,8.43-4.26,8.43-4.26
		c-3.42-0.06-5.73-1.23-7.12-2.24c-0.98-0.72-1.58-1.82-1.72-3.03c-1.18-10.41-8.77-12.1-8.77-12.1
		c-14.59-3.14-23.39,5.43-23.55,16.41c-0.06,3.89-2.28,7.48-5.89,8.95c-1.54,0.63-3.13,0.91-4.56,1c-4.39,0.3-8.62,1.78-12.28,4.22
		c-20.52,13.72-36.5,36.41-45.93,61.19c-1.3,3.42-1.14,7.22,0.45,10.52l22.51,46.72c-9,23.89,0.92,66.37,0.92,66.37h12.47
		l120.04-110.57l13.74-26.89C463.3,152.06,456.67,149,452.34,145.25z M390.28,86.31c0.06,0.69,0.03,1.97,0.34,2.6
		c0.4,1.02,1.35,1.87,2.47,2.12l1.62,0.31c1.1,0.24,2.2,0.5,3.3,0.9c-1.1,0.4-2.2,0.66-3.3,0.9c-1.23,0.26-2.55,0.52-3.8,0.09
		c-2.14-0.62-3.8-2.65-4.11-4.87l-0.15-1.7c-0.31-4.18-2.23-7.38-6.06-9.54C385.81,76.37,390.01,81.31,390.28,86.31z M426.57,136.74
		l22.48,10.76l-23.81-7.36L426.57,136.74z M376.95,139.35c0.44,2.41,0.72,4.94,0.91,7.41c10.2,1.23,20.37,2.74,30.37,5.19
		c-5.41,0.14-10.8-0.09-16.19-0.39c-5.86-0.36-11.72-0.88-17.55-1.52c-0.83-12.03-2.8-24.16-8.16-35.09
		C372.25,121.71,375.32,130.61,376.95,139.35z M369.52,102.49c0.31,3.38-1.66,6.55-4.85,7.73
		C364.35,106.84,366.35,103.68,369.52,102.49z M357.23,150.56l6.08,7.39L353,157.49L357.23,150.56z M339.51,150.77l10.76-10.44
		l0.09,0.83l0.42-0.37l0.62,9.27l-6.9,6.1l-6.85,6.64l-0.48-0.16l-0.02,0.02l-0.57-0.22l-6.81-2.25l0.26-0.25l-0.63-0.24
		L339.51,150.77z M322.83,176.98l6.47-1.73l9.25,41.29l0.07,0.33c-0.01,0.17-4.48,38.33-4.5,38.52c0,0,1.16-34.46,1.28-38.22
		L322.83,176.98z M335.76,265.75l7.39-47.78l-6.14-31.05l32.22-6.81l13.85,47.67L335.76,265.75z M402.03,166.08
		c-2.57,0.31-5.14,0.6-7.71,0.87c3.55,12.62,6.68,25.36,9.21,38.22c1.23-0.87,2.46-1.72,3.69-2.58c1.7-1.16,3.41-2.31,5.16-3.42
		c-2.88,2.96-5.87,5.78-8.9,8.58l-1.15,1.05l-0.52-1.6c-4.54-14.2-8.32-28.64-11.57-43.19c6.94-0.34,14.39-0.5,21.35-0.45l0.78,0
		c-0.48,2.15-0.78,4.5,0.36,6.51c-1.3-1.37-1.69-3.35-1.7-5.22C408.49,165.23,404.24,165.81,402.03,166.08z M434.77,156.63
		c-0.45,0.69-0.91,1.39-1.38,2.07c-2.13,3.17-4.33,6.29-6.63,9.35c0.13,4.47-1.94,7.92-7,5.73c-1.09-0.46-2.08-1.03-3.04-1.67
		c1.94,0.4,4.46,1.22,6.25,0.51c1.69-0.89,1-3.66,0.8-5.3c0.76-1.32,1.54-2.63,2.33-3.94c2.35-3.87,4.86-7.65,7.39-11.4
		c0,0,1.45,0.83,1.45,0.83c3.09,1.65,7.15,1.96,10.74,2.18c3.42,0.19,8.39,0.14,11.87,0.11
		C451.04,157.37,441.67,159.12,434.77,156.63z"/>
	<polygon points="567.35,360.34 558.06,345.62 499.55,366 507.02,392.28 508.36,391.64 510.05,386.79 516.36,389.95 518.74,382.56 
		523.98,384.87 525.28,378.79 530.75,381.71 531.98,375.34 538.61,376.56 539.37,371.19 546.23,373.21 546.41,367.67 553.22,370.21 
		553.39,363.28 560.31,365.13 559.74,359.76 	"/>
	<path d="M496.09,367.2l-35.5,12.36l1.9,5.8l6.56-2.14l5.4,17.41l-5.99,2.9l2.11,6.42l33.11-16.05L496.09,367.2z M481.48,397.22
		l-5.46-16.28l15.56-5.08l4.11,14.47L481.48,397.22z"/>
	<g>
		<rect x="620.7" y="396.15" width="90.64" height="9.14"/>
	</g>
	<path d="M710.65,373.71h-44.01l27.09-29.09l6.54,5.16c0,0,4.08-7,15.24-5.92C701.88,357.22,695.64,368.49,710.65,373.71z"/>
	<path d="M645.39,379.63c-1.08,0-2.12-0.41-2.9-1.16c-1.45-1.39-3.86-3.95-5.74-7.23c-2.73-4.77-2.56-10.68,0.26-15.39l1.25-2.09
		c0.63-1.06,0.06-2.43-1.15-2.71l-1.9-0.44c-1.82-0.43-3.7,0.32-4.76,1.86c-6.88,10.02-9.21,20.79-4.59,32.67
		c1.26,3.25,4.43,5.36,7.91,5.36h78.32v-10.88H645.39z M653.34,388.91c-1.82,0-3.29-1.47-3.29-3.29c0-1.82,1.47-3.29,3.29-3.29
		c1.82,0,3.29,1.47,3.29,3.29C656.63,387.43,655.16,388.91,653.34,388.91z"/>
	<g>
		<g>
			<path class="st0" d="M567.84,437.29H458.72c-6.72,0-12.18-5.47-12.18-12.18v-99.42c0-6.72,5.47-12.18,12.18-12.18h109.11
				c6.72,0,12.18,5.47,12.18,12.18v99.42C580.02,431.83,574.55,437.29,567.84,437.29z M458.72,323.26c-1.32,0-2.44,1.12-2.44,2.44
				v99.42c0,1.32,1.12,2.44,2.44,2.44h109.11c1.32,0,2.44-1.12,2.44-2.44v-99.42c0-1.32-1.12-2.44-2.44-2.44H458.72z"/>
		</g>
	</g>
	<g>
		<g>
			<path class="st0" d="M722.35,437.29H613.24c-6.72,0-12.18-5.47-12.18-12.18v-99.42c0-6.72,5.47-12.18,12.18-12.18h109.11
				c6.72,0,12.18,5.47,12.18,12.18v99.42C734.53,431.83,729.07,437.29,722.35,437.29z M613.24,323.26c-1.32,0-2.44,1.12-2.44,2.44
				v99.42c0,1.32,1.12,2.44,2.44,2.44h109.11c1.32,0,2.44-1.12,2.44-2.44v-99.42c0-1.32-1.12-2.44-2.44-2.44H613.24z"/>
		</g>
	</g>
	<g>
		<path class="st0" d="M876.86,437.29H767.75c-6.72,0-12.18-5.47-12.18-12.18v-99.42c0-6.72,5.47-12.18,12.18-12.18h109.11
			c6.72,0,12.18,5.47,12.18,12.18v99.42C889.04,431.83,883.58,437.29,876.86,437.29z M767.75,323.26c-1.32,0-2.44,1.12-2.44,2.44
			v99.42c0,1.32,1.12,2.44,2.44,2.44h109.11c1.32,0,2.44-1.12,2.44-2.44v-99.42c0-1.32-1.12-2.44-2.44-2.44H767.75z"/>
	</g>
	<g>
		<g>
			<rect x="812.13" y="344.54" transform="matrix(0.8132 -0.582 0.582 0.8132 -60.1196 543.009)" width="7.31" height="41.22"/>
		</g>
		<g>
			<path d="M841.64,419.79l-17.81-24.88c-2.94-4.11-2-9.83,2.12-12.78l2.45-1.75c4.11-2.94,9.83-2,12.78,2.12l17.81,24.88
				c1.57,2.2,1.07,5.26-1.13,6.83l-9.37,6.71C846.27,422.5,843.21,421.99,841.64,419.79z"/>
		</g>
		<path d="M823.22,329l8.39,8.08c0,0-17.79,4.14-27.07,17.83c0,0-17.26-4.91-20.03,22.91l-1.79-10.27l-3.64,1.27
			c4.98-18.32,14.12-28.98,29.29-28.48c1.45,0.05,2.86-0.49,3.94-1.47L823.22,329z"/>
	</g>
</g>
</svg>
